<svg 
 xmlns="http://www.w3.org/2000/svg"
 xmlns:xlink="http://www.w3.org/1999/xlink"
 width="9px" height="13px">
<path fill-rule="evenodd"  fill="rgb(255, 255, 255)"
 d="M8.420,3.232 L7.966,3.232 L0.762,3.232 L0.308,3.232 C0.163,3.232 0.045,3.111 0.045,2.963 L0.045,2.282 C0.045,2.133 0.163,2.013 0.308,2.013 L2.147,2.013 L2.147,1.844 L2.147,1.676 L2.147,0.708 C2.147,0.559 2.265,0.439 2.410,0.439 L6.318,0.439 C6.464,0.439 6.581,0.559 6.581,0.708 L6.581,1.676 L6.581,1.844 L6.581,2.013 L8.420,2.013 C8.566,2.013 8.683,2.133 8.683,2.282 L8.683,2.963 C8.683,3.111 8.566,3.232 8.420,3.232 ZM5.595,1.844 L5.595,1.676 L5.595,1.448 L3.133,1.448 L3.133,1.676 L3.133,1.844 L3.133,1.957 L5.595,1.957 L5.595,1.844 ZM7.966,12.292 C7.966,12.440 7.848,12.561 7.703,12.561 L1.025,12.561 C0.880,12.561 0.762,12.440 0.762,12.292 L0.762,3.569 L7.966,3.569 L7.966,12.292 ZM2.884,5.053 L1.898,5.053 L1.898,10.923 L2.884,10.923 L2.884,5.053 ZM4.857,5.053 L3.871,5.053 L3.871,10.923 L4.857,10.923 L4.857,5.053 ZM6.830,5.053 L5.844,5.053 L5.844,10.923 L6.830,10.923 L6.830,5.053 Z"/>
</svg>