<svg 
 xmlns="http://www.w3.org/2000/svg"
 xmlns:xlink="http://www.w3.org/1999/xlink"
 width="13px" height="13px">
<path fill-rule="evenodd"  fill="rgb(255, 255, 255)"
 d="M12.305,4.097 L11.777,4.633 L8.607,1.418 L9.135,0.882 C9.719,0.290 10.665,0.290 11.249,0.882 L12.305,1.954 C12.888,2.546 12.888,3.505 12.305,4.097 ZM4.910,10.525 C4.764,10.673 4.764,10.913 4.910,11.061 C5.056,11.210 5.292,11.210 5.438,11.061 L11.249,5.168 L10.720,4.632 L4.910,10.525 ZM2.268,7.847 C2.123,7.995 2.123,8.235 2.268,8.382 C2.414,8.530 2.651,8.530 2.797,8.382 L8.607,2.490 L8.079,1.954 L2.268,7.847 ZM9.135,3.025 L3.325,8.918 C3.033,9.213 3.034,9.693 3.325,9.990 C3.617,10.285 4.089,10.287 4.382,9.989 L10.192,4.097 L9.135,3.025 ZM4.380,11.595 C4.202,11.414 4.115,11.184 4.083,10.947 C4.008,10.959 3.931,10.970 3.853,10.970 C3.454,10.970 3.079,10.812 2.797,10.525 C2.514,10.238 2.359,9.859 2.359,9.454 C2.359,9.380 2.370,9.308 2.380,9.236 C2.139,9.203 1.916,9.096 1.741,8.918 C1.724,8.901 1.718,8.878 1.702,8.860 L0.791,12.561 L4.430,11.637 C4.414,11.622 4.396,11.611 4.380,11.595 Z"/>
</svg>