<svg 
 xmlns="http://www.w3.org/2000/svg"
 xmlns:xlink="http://www.w3.org/1999/xlink"
 width="16px" height="4px">
<path fill-rule="evenodd"  fill="rgb(163, 173, 179)"
 d="M12.000,2.000 C12.000,3.100 12.900,4.000 14.000,4.000 C15.100,4.000 16.000,3.100 16.000,2.000 C16.000,0.900 15.100,-0.000 14.000,-0.000 C12.900,-0.000 12.000,0.900 12.000,2.000 ZM10.000,2.000 C10.000,0.900 9.100,-0.000 8.000,-0.000 C6.900,-0.000 6.000,0.900 6.000,2.000 C6.000,3.100 6.900,4.000 8.000,4.000 C9.100,4.000 10.000,3.100 10.000,2.000 ZM4.000,2.000 C4.000,0.900 3.100,-0.000 2.000,-0.000 C0.900,-0.000 0.000,0.900 0.000,2.000 C0.000,3.100 0.900,4.000 2.000,4.000 C3.100,4.000 4.000,3.100 4.000,2.000 Z"/>
</svg>