<svg 
 xmlns="http://www.w3.org/2000/svg"
 xmlns:xlink="http://www.w3.org/1999/xlink"
 width="21px" height="21px">
<path fill-rule="evenodd"  fill="rgb(163, 173, 179)"
 d="M10.500,21.000 C4.699,21.000 -0.000,16.283 -0.000,10.500 C-0.000,4.717 4.717,-0.000 10.500,-0.000 C16.283,-0.000 21.000,4.717 21.000,10.500 C21.000,16.283 16.301,21.000 10.500,21.000 ZM10.500,1.482 C5.530,1.482 1.482,5.530 1.482,10.500 C1.482,15.470 5.530,19.518 10.500,19.518 C15.470,19.518 19.518,15.470 19.518,10.500 C19.518,5.530 15.470,1.482 10.500,1.482 ZM11.078,13.897 C10.934,14.042 10.753,14.114 10.554,14.114 C10.355,14.114 10.175,14.042 10.030,13.897 L5.259,9.126 C5.114,8.982 5.042,8.783 5.042,8.602 C5.042,8.404 5.114,8.223 5.259,8.078 C5.548,7.789 6.018,7.789 6.307,8.078 L10.554,12.325 L14.801,8.078 C15.090,7.789 15.560,7.789 15.849,8.078 C16.138,8.367 16.138,8.837 15.849,9.126 L11.078,13.897 Z"/>
</svg>