<svg 
 xmlns="http://www.w3.org/2000/svg"
 xmlns:xlink="http://www.w3.org/1999/xlink"
 width="39px" height="27px">
<path fill-rule="evenodd"  fill="rgb(220, 36, 141)"
 d="M39.000,23.355 C39.000,23.874 38.581,24.295 38.065,24.295 L33.638,24.295 C33.718,24.873 33.769,25.460 33.769,26.059 C33.769,26.579 33.351,27.000 32.835,27.000 C32.318,27.000 31.899,26.579 31.899,26.059 C31.899,20.054 27.044,15.168 21.074,15.168 C15.105,15.168 10.249,20.054 10.249,26.059 C10.249,26.579 9.830,27.000 9.314,27.000 C8.798,27.000 8.379,26.579 8.379,26.059 C8.379,25.428 8.433,24.809 8.521,24.202 C8.401,24.259 8.270,24.295 8.129,24.295 L0.935,24.295 C0.419,24.295 -0.000,23.874 -0.000,23.355 C-0.000,18.553 2.869,14.697 7.068,13.299 C5.462,12.160 4.405,10.288 4.405,8.166 C4.405,4.700 7.207,1.881 10.653,1.881 C12.213,1.881 13.672,2.472 14.821,3.515 C16.121,1.409 18.434,-0.000 21.074,-0.000 C23.535,-0.000 25.711,1.224 27.049,3.095 C27.049,3.086 27.044,3.078 27.044,3.069 C27.044,2.550 27.463,2.129 27.979,2.129 C31.484,2.129 34.560,5.146 34.560,8.585 C34.560,10.570 33.646,12.342 32.164,13.487 C36.203,15.035 39.000,18.895 39.000,23.355 ZM1.915,22.414 L8.129,22.414 C8.407,22.414 8.650,22.542 8.822,22.737 C9.641,19.686 11.558,17.091 14.120,15.396 C12.964,14.876 11.788,14.606 10.609,14.606 C5.946,14.606 2.354,17.902 1.915,22.414 ZM14.033,5.242 C13.931,5.196 13.833,5.136 13.749,5.052 C12.921,4.220 11.823,3.762 10.653,3.762 C8.239,3.762 6.275,5.737 6.275,8.166 C6.275,10.594 8.239,12.571 10.653,12.571 C12.088,12.571 13.435,11.861 14.254,10.672 C14.296,10.611 14.355,10.571 14.408,10.523 C13.967,9.574 13.710,8.523 13.710,7.408 C13.710,6.655 13.824,5.928 14.033,5.242 ZM14.125,13.385 C14.769,13.621 15.408,13.898 16.036,14.263 C16.063,14.279 16.079,14.305 16.103,14.323 C16.532,14.139 16.969,13.969 17.421,13.832 C16.671,13.399 16.013,12.828 15.457,12.168 C15.069,12.640 14.622,13.050 14.125,13.385 ZM21.074,1.881 C18.044,1.881 15.580,4.360 15.580,7.408 C15.580,10.456 18.044,12.936 21.074,12.936 C24.104,12.936 26.569,10.456 26.569,7.408 C26.569,4.360 24.104,1.881 21.074,1.881 ZM29.235,14.698 C28.777,14.648 28.422,14.270 28.402,13.806 C28.380,13.343 28.698,12.933 29.150,12.842 C31.235,12.418 32.690,10.668 32.690,8.585 C32.690,6.191 30.445,4.010 27.979,4.010 C27.824,4.010 27.685,3.963 27.556,3.896 C28.118,4.942 28.438,6.138 28.438,7.408 C28.438,10.155 26.941,12.553 24.728,13.832 C28.803,15.067 32.012,18.312 33.231,22.414 L37.079,22.414 C36.640,18.395 33.414,15.153 29.235,14.698 Z"/>
</svg>