<svg 
 xmlns="http://www.w3.org/2000/svg"
 xmlns:xlink="http://www.w3.org/1999/xlink"
 width="18px" height="19px">
<path fill-rule="evenodd"  fill="rgb(132, 146, 168)"
 d="M17.297,18.513 L10.055,18.513 C9.666,18.513 9.351,18.189 9.351,17.790 L9.351,7.231 C9.351,6.832 9.666,6.508 10.055,6.508 L17.297,6.508 C17.685,6.508 18.000,6.832 18.000,7.231 L18.000,17.790 C18.000,18.189 17.685,18.513 17.297,18.513 ZM16.594,7.955 L10.758,7.955 L10.758,17.066 L16.594,17.066 L16.594,7.955 ZM17.297,5.785 L10.055,5.785 C9.666,5.785 9.351,5.461 9.351,5.062 L9.351,0.723 C9.351,0.324 9.666,-0.000 10.055,-0.000 L17.297,-0.000 C17.685,-0.000 18.000,0.324 18.000,0.723 L18.000,5.062 C18.000,5.461 17.685,5.785 17.297,5.785 ZM16.594,1.446 L10.758,1.446 L10.758,4.339 L16.594,4.339 L16.594,1.446 ZM7.945,18.513 L0.703,18.513 C0.315,18.513 -0.000,18.189 -0.000,17.790 L-0.000,13.451 C-0.000,13.051 0.315,12.727 0.703,12.727 L7.945,12.727 C8.334,12.727 8.648,13.051 8.648,13.451 L8.648,17.790 C8.648,18.189 8.334,18.513 7.945,18.513 ZM7.242,14.174 L1.406,14.174 L1.406,17.066 L7.242,17.066 L7.242,14.174 ZM7.945,12.004 L0.703,12.004 C0.315,12.004 -0.000,11.680 -0.000,11.281 L-0.000,0.723 C-0.000,0.324 0.315,-0.000 0.703,-0.000 L7.945,-0.000 C8.334,-0.000 8.648,0.324 8.648,0.723 L8.648,11.281 C8.648,11.680 8.334,12.004 7.945,12.004 ZM7.242,1.446 L1.406,1.446 L1.406,10.558 L7.242,10.558 L7.242,1.446 Z"/>
</svg>