<svg 
 xmlns="http://www.w3.org/2000/svg"
 xmlns:xlink="http://www.w3.org/1999/xlink"
 width="18px" height="18px">
<path fill-rule="evenodd"  fill="rgb(132, 146, 168)"
 d="M9.000,18.000 L0.703,18.000 C0.315,18.000 -0.000,17.685 -0.000,17.297 L-0.000,9.000 C-0.000,4.025 4.026,-0.000 9.000,-0.000 C13.975,-0.000 18.000,4.026 18.000,9.000 C18.000,13.975 13.974,18.000 9.000,18.000 ZM9.000,1.406 C4.803,1.406 1.406,4.803 1.406,9.000 L1.406,16.594 L9.000,16.594 C13.197,16.594 16.594,13.197 16.594,9.000 C16.594,4.802 13.197,1.406 9.000,1.406 ZM10.121,9.186 C9.447,9.713 9.435,10.081 9.435,10.718 C9.435,10.951 9.312,11.221 8.712,11.221 C8.210,11.221 8.038,11.037 8.038,10.400 C8.038,9.346 8.504,8.843 8.859,8.537 C9.263,8.194 9.950,7.814 9.950,7.152 C9.950,6.589 9.459,6.319 8.847,6.319 C7.597,6.319 7.866,7.262 7.205,7.262 C6.874,7.262 6.469,7.042 6.469,6.564 C6.469,5.902 7.229,4.922 8.884,4.922 C10.452,4.922 11.494,5.792 11.494,6.944 C11.494,8.096 10.452,8.929 10.121,9.186 ZM8.724,12.066 C9.239,12.066 9.668,12.495 9.668,13.010 C9.668,13.512 9.251,13.953 8.724,13.953 C8.197,13.953 7.793,13.512 7.793,13.010 C7.793,12.495 8.210,12.066 8.724,12.066 Z"/>
</svg>