<svg 
 xmlns="http://www.w3.org/2000/svg"
 xmlns:xlink="http://www.w3.org/1999/xlink"
 width="30px" height="32px">
<path fill-rule="evenodd"  fill="rgb(220, 36, 141)"
 d="M25.606,21.032 C23.972,19.342 22.028,18.092 19.906,17.334 C22.179,15.716 23.672,13.007 23.672,9.945 C23.672,5.000 19.781,0.978 15.000,0.978 C10.218,0.978 6.328,5.000 6.328,9.945 C6.328,13.007 7.821,15.716 10.093,17.334 C7.971,18.092 6.027,19.342 4.393,21.032 C1.560,23.961 -0.000,27.856 -0.000,31.999 L2.343,31.999 C2.343,24.783 8.021,18.912 15.000,18.912 C21.978,18.912 27.656,24.783 27.656,31.999 L30.000,31.999 C30.000,27.856 28.439,23.961 25.606,21.032 ZM15.000,16.489 C11.510,16.489 8.672,13.553 8.672,9.945 C8.672,6.336 11.510,3.401 15.000,3.401 C18.489,3.401 21.328,6.336 21.328,9.945 C21.328,13.553 18.489,16.489 15.000,16.489 Z"/>
</svg>