<svg 
 xmlns="http://www.w3.org/2000/svg"
 xmlns:xlink="http://www.w3.org/1999/xlink"
 width="14px" height="14px">
<path fill-rule="evenodd"  fill="rgb(133, 133, 133)"
 d="M13.781,12.752 L10.331,9.286 C11.218,8.268 11.704,6.986 11.704,5.652 C11.704,2.536 9.079,0.000 5.851,0.000 C2.624,0.000 -0.001,2.536 -0.001,5.652 C-0.001,8.769 2.624,11.305 5.851,11.305 C7.063,11.305 8.218,10.952 9.205,10.282 L12.681,13.774 C12.826,13.919 13.022,14.000 13.231,14.000 C13.429,14.000 13.618,13.927 13.760,13.794 C14.064,13.512 14.073,13.045 13.781,12.752 ZM5.851,1.475 C8.237,1.475 10.178,3.349 10.178,5.652 C10.178,7.956 8.237,9.830 5.851,9.830 C3.466,9.830 1.525,7.956 1.525,5.652 C1.525,3.349 3.466,1.475 5.851,1.475 Z"/>
</svg>