<svg 
 xmlns="http://www.w3.org/2000/svg"
 xmlns:xlink="http://www.w3.org/1999/xlink"
 width="16px" height="9px">
<path fill-rule="evenodd"  fill="rgb(255, 255, 255)"
 d="M7.757,0.026 C4.966,0.026 2.435,1.574 0.568,4.089 C0.416,4.295 0.416,4.583 0.568,4.789 C2.435,7.306 4.966,8.855 7.757,8.855 C10.548,8.855 13.078,7.306 14.946,4.792 C15.098,4.586 15.098,4.298 14.946,4.092 C13.078,1.574 10.548,0.026 7.757,0.026 ZM7.957,7.549 C6.104,7.667 4.575,6.119 4.691,4.238 C4.787,2.686 6.027,1.429 7.557,1.332 C9.409,1.214 10.939,2.762 10.822,4.643 C10.724,6.192 9.484,7.449 7.957,7.549 ZM7.864,6.113 C6.866,6.176 6.042,5.343 6.107,4.331 C6.158,3.495 6.828,2.820 7.652,2.765 C8.650,2.702 9.475,3.535 9.409,4.547 C9.355,5.386 8.686,6.061 7.864,6.113 Z"/>
</svg>